<?xml version="1.0" encoding="utf-8" standalone="yes"?>
<!DOCTYPE svg PUBLIC "-//W3C//DTD SVG 1.1//EN" "http://www.w3.org/Graphics/SVG/1.1/DTD/svg11.dtd">
<svg width="74" height="74" viewBox="0 0 74 74" style="fill:none;stroke:none;fill-rule:evenodd;clip-rule:evenodd;stroke-linecap:round;stroke-linejoin:round;stroke-miterlimit:1.5;" version="1.1" xmlns="http://www.w3.org/2000/svg" xmlns:xlink="http://www.w3.org/1999/xlink"><g id="items" style="isolation: isolate"><g id="blend" style="mix-blend-mode: normal"><g id="g-root-1_znsi83lgkct-fill" data-item-order="1000000000" transform="translate(3, 3)"></g><g id="g-root-1_znsi83lgkct-stroke" data-item-order="1000000000" transform="translate(3, 3)"><g id="1_znsi83lgkct-stroke" fill="none" stroke-linecap="round" stroke-linejoin="round" stroke-miterlimit="4" stroke="#f4f4f4" stroke-width="2"><g><path d="M 56.285713 11.714286L 47.714287 11.714286L 44.73143 41.371429C 44.475075 43.061844 43.012489 44.305042 41.302856 44.285713L 19.702856 44.285713C 18.166334 44.365913 16.764551 43.412701 16.274286 41.954285L 11.714286 28.240002C 11.369386 27.194035 11.54796 26.046061 12.194285 25.154285C 12.868718 24.204576 13.9792 23.662249 15.142858 23.714287L 46.514286 23.714287M 18.571428 54.57143C 18.571428 55.518204 19.33894 56.285713 20.285715 56.285713C 21.232489 56.285713 22 55.518204 22 54.57143C 22 53.624657 21.232489 52.857143 20.285715 52.857143C 19.33894 52.857143 18.571428 53.624657 18.571428 54.57143M 40.857143 54.57143C 40.857143 55.518204 41.624657 56.285713 42.57143 56.285713C 43.518204 56.285713 44.285713 55.518204 44.285713 54.57143C 44.285713 53.624657 43.518204 52.857143 42.57143 52.857143C 41.624657 52.857143 40.857143 53.624657 40.857143 54.57143"></path></g></g></g></g></g></svg>